<svg width="73" height="72" viewBox="0 0 73 72" fill="none" xmlns="http://www.w3.org/2000/svg">
<path fill-rule="evenodd" clip-rule="evenodd" d="M36.4805 72C56.3627 72 72.4805 55.8823 72.4805 36C72.4805 16.1177 56.3627 0 36.4805 0C16.5982 0 0.480469 16.1177 0.480469 36C0.480469 55.8823 16.5982 72 36.4805 72Z" fill="white"/>
<mask id="mask0" mask-type="alpha" maskUnits="userSpaceOnUse" x="0" y="0" width="73" height="72">
<path fill-rule="evenodd" clip-rule="evenodd" d="M36.4805 72C56.3627 72 72.4805 55.8823 72.4805 36C72.4805 16.1177 56.3627 0 36.4805 0C16.5982 0 0.480469 16.1177 0.480469 36C0.480469 55.8823 16.5982 72 36.4805 72Z" fill="white"/>
</mask>
<g mask="url(#mask0)">
<path d="M60.8685 65.1207C60.8685 65.1207 52.236 68.6379 36.2478 68.6379C20.2596 68.6379 11.627 65.1207 11.627 65.1207L14.7275 26.3629C15.625 15.1457 24.99 6.5 36.243 6.5H36.2523C47.5055 6.5 56.8704 15.1457 57.7677 26.3629L60.8685 65.1207Z" fill="#E69F5F"/>
<path d="M42.5221 7.43471C40.5337 6.83121 38.4301 6.5 36.2523 6.5H36.2431C24.99 6.5 15.6249 15.1457 14.7275 26.3629L11.627 65.1207C11.627 65.1207 15.8588 66.8368 23.8592 67.8713L42.5221 7.43471Z" fill="#E09156"/>
<path d="M58.4348 67.171L58.2112 66.405C58.1031 66.035 57.7426 65.8081 57.3718 65.8553L56.5901 59.9929C56.3334 58.0669 55.139 56.3935 53.4012 55.5246L50.8758 54.2619C50.4996 54.0737 50.0683 54.2406 49.8842 54.5975L44.8864 52.7585C43.9288 52.4394 43.2831 51.5433 43.2831 50.534V46.7527L48.3334 44.6484C50.9549 43.5563 52.6624 40.995 52.6624 38.1551V36.9827C54.6049 36.9827 56.1796 35.408 56.1796 33.4655C56.1796 31.5229 54.6049 29.9482 52.6624 29.9482V27.6034C52.6624 24.3659 50.0378 19.3965 46.8003 19.3965H25.6969C22.4594 19.3965 19.8348 24.3659 19.8348 27.6034V29.9482C17.8923 29.9482 16.3176 31.5229 16.3176 33.4655C16.3176 35.408 17.8923 36.9827 19.8348 36.9827V38.1551C19.8348 40.995 21.5423 43.5563 24.1637 44.6485L29.2141 46.753V50.5342C29.2141 51.5435 28.5683 52.4395 27.6109 52.7587L22.6133 54.5975C22.4313 54.2402 22.0009 54.0724 21.6252 54.2601L19.3223 55.4116C17.3571 56.3942 16.1638 58.0672 15.9071 59.9931L15.1254 65.8554C14.7546 65.8082 14.3942 66.0351 14.2861 66.4051L14.0624 67.1712C13.9427 67.5814 14.1782 68.0108 14.5883 68.1305L16.3176 68.6348V72.1551C16.3176 73.45 17.3675 74.4999 18.6624 74.4999H23.3521H49.1452H53.8348C55.1297 74.4999 56.1796 73.45 56.1796 72.1551V68.6348L57.9088 68.1304C58.3189 68.0108 58.5544 67.5812 58.4348 67.171Z" fill="#FFD7A3"/>
<path d="M43.2832 46.7529L29.2142 46.7531V50.5343C29.2142 51.3686 28.772 52.1246 28.0781 52.5422C37.8861 54.2367 43.2832 46.7529 43.2832 46.7529Z" fill="#FDC88E"/>
<path d="M52.6612 29.9482V27.6034C52.6612 24.3659 50.0366 19.3965 46.7992 19.3965H25.6957C22.4582 19.3965 19.8336 24.3659 19.8336 27.6034V29.9482C17.8911 29.9482 16.3164 31.5229 16.3164 33.4655C16.3164 35.408 17.8911 36.9827 19.8336 36.9827V38.1551C19.8336 40.995 21.5411 43.5563 24.1625 44.6485L31.7379 47.805C33.1668 48.4004 34.6994 48.7068 36.2473 48.7068C37.7952 48.7068 39.3277 48.4002 40.7565 47.805L48.3324 44.6484C50.9538 43.5563 52.6612 40.995 52.6612 38.1551V36.9827C54.6038 36.9827 56.1785 35.408 56.1785 33.4655C56.1785 31.5229 54.6038 29.9482 52.6612 29.9482Z" fill="#FFE1B2"/>
<path d="M44.4556 34.6378C43.8108 34.6378 43.2832 34.1103 43.2832 33.4654V32.293C43.2832 31.6482 43.8108 31.1206 44.4556 31.1206C45.1004 31.1206 45.628 31.6482 45.628 32.293V33.4654C45.628 34.1103 45.1003 34.6378 44.4556 34.6378Z" fill="#623F33"/>
<path d="M36.247 42.877C34.1626 42.877 32.2129 42.364 30.8979 41.4693C30.3627 41.1053 30.2234 40.3759 30.5882 39.8407C30.9517 39.3061 31.6816 39.1668 32.2168 39.531C33.1385 40.1578 34.6452 40.5323 36.247 40.5323C37.8488 40.5323 39.3555 40.1578 40.2772 39.531C40.8136 39.1658 41.5418 39.3055 41.9058 39.8407C42.2704 40.3759 42.1314 41.1053 41.5961 41.4693C40.2814 42.364 38.3316 42.877 36.247 42.877Z" fill="#E4B07B"/>
<path d="M25.9881 42.218C25.0381 41.1996 24.5233 39.8555 24.5233 38.4626V33.418C30.9172 32.9337 39.5493 28.6985 44.7216 24.646L43.2819 23.2063C43.2819 23.2063 32.8768 29.9477 19.8336 29.9477V29.9483C17.8911 29.9483 16.3164 31.523 16.3164 33.4655C16.3164 35.408 17.8911 36.9827 19.8336 36.9827V38.1552C19.8336 40.995 21.5411 43.5563 24.1625 44.6486L31.7378 47.805C32.1085 47.9595 32.4869 48.0925 32.8702 48.2079C29.5222 45.7587 27.2937 43.6179 25.9881 42.218Z" fill="#FFD7A3"/>
<path d="M57.525 67.0165L56.5886 59.993C56.3318 58.067 55.1374 56.3935 53.3996 55.5246L50.8742 54.2619C50.4464 54.048 49.947 54.293 49.8214 54.7547C48.1961 60.7282 42.7353 65.1211 36.2467 65.1211C29.7567 65.1211 24.2947 60.726 22.6709 54.7501C22.5461 54.2908 22.0493 54.0471 21.6237 54.2599L19.3208 55.4114C17.3555 56.394 16.1623 58.067 15.9055 59.9929L14.9512 67.1498C18.0484 68.2165 23.3503 69.8104 23.3503 69.8104V74.5H49.1434V69.8104L57.525 67.0165Z" fill="#FF6473"/>
<path d="M23.3219 69.4521C23.2503 68.0579 22.7848 66.7108 21.9441 65.5897L16.44 58.251C16.1743 58.7982 15.9876 59.3806 15.9058 59.993L14.9766 66.9632L23.3219 69.4521Z" fill="#F05467"/>
<path d="M14.0624 67.171C13.9427 67.5812 14.1782 68.0107 14.5883 68.1303L23.3519 70.6868V69.8102C23.3519 69.2564 23.2649 68.7139 23.1378 68.1816L15.2451 65.8793C14.8351 65.7597 14.4057 65.9951 14.2861 66.4051L14.0624 67.171Z" fill="#D4445A"/>
<path d="M49.1738 69.4521C49.2455 68.0579 49.7109 66.7108 50.5517 65.5897L56.0558 58.251C56.3214 58.7982 56.5082 59.3806 56.5899 59.993L57.5192 66.9632L49.1738 69.4521Z" fill="#F05467"/>
<path d="M58.4342 67.171C58.5539 67.5812 58.3184 68.0107 57.9083 68.1303L49.1445 70.6868V69.8102C49.1445 69.2564 49.2316 68.7139 49.3586 68.1816L57.2513 65.8793C57.6614 65.7597 58.0908 65.9951 58.2104 66.4051L58.4342 67.171Z" fill="#D4445A"/>
<path d="M28.0416 34.6378C27.3967 34.6378 26.8691 34.1103 26.8691 33.4654V32.293C26.8691 31.6482 27.3967 31.1206 28.0416 31.1206C28.6864 31.1206 29.214 31.6482 29.214 32.293V33.4654C29.214 34.1103 28.6864 34.6378 28.0416 34.6378Z" fill="#623F33"/>
<path d="M17.4494 23.0569L17.489 30.8356C28.5538 30.8356 37.7276 27.3783 43.7464 24.2651C41.8762 26.2938 39.063 29.0553 35.075 32.2932C35.075 32.2932 45.5139 28.1423 51.3616 22.987V22.9866C51.3616 15.3379 45.1612 9.13745 37.5125 9.13745H31.2982C23.6222 9.13745 17.4103 15.381 17.4494 23.0569Z" fill="#E69F5F"/>
<path d="M41.7856 9.81027C40.4397 9.37399 39.0039 9.13745 37.5126 9.13745H31.2984C23.6222 9.13745 17.4104 15.3808 17.4494 23.0569L17.489 30.8358C20.7155 30.8358 23.7798 30.5403 26.6534 30.0466C37.2449 21.9355 41.7685 9.85629 41.7856 9.81027Z" fill="#E09156"/>
</g>
</svg>
