<svg width="73" height="72" viewBox="0 0 73 72" fill="none" xmlns="http://www.w3.org/2000/svg">
<path fill-rule="evenodd" clip-rule="evenodd" d="M36.4805 72C56.3627 72 72.4805 55.8823 72.4805 36C72.4805 16.1177 56.3627 0 36.4805 0C16.5982 0 0.480469 16.1177 0.480469 36C0.480469 55.8823 16.5982 72 36.4805 72Z" fill="white"/>
<path fill-rule="evenodd" clip-rule="evenodd" d="M36.9797 56C27.3302 56 19.4805 47.765 19.4805 37.6439V28H22.1591V37.6439C22.1591 46.2134 28.8079 53.1872 36.9797 53.1872C45.1531 53.1872 51.8019 46.2134 51.8019 37.6439V28H54.4805V37.6439C54.4805 47.765 46.6308 56 36.9797 56Z" fill="#EC2985"/>
<path fill-rule="evenodd" clip-rule="evenodd" d="M36.9789 19C33.396 19 30.4805 21.853 30.4805 25.3605V38.6395C30.4805 42.147 33.396 45 36.9789 45C40.5633 45 43.4805 42.147 43.4805 38.6395V25.3605C43.4805 21.853 40.5633 19 36.9789 19ZM36.9797 48C31.7432 48 27.4805 43.865 27.4805 38.7821V25.2195C27.4805 20.1366 31.7432 16 36.9797 16C42.2177 16 46.4805 20.1366 46.4805 25.2195V38.7821C46.4805 43.865 42.2177 48 36.9797 48Z" fill="#EC2985"/>
</svg>
