<svg width="38" height="39" viewBox="0 0 38 39" fill="none" xmlns="http://www.w3.org/2000/svg">
<path fill-rule="evenodd" clip-rule="evenodd" d="M4.81641 1H33.1445C35.5354 1 37.4805 2.9451 37.4805 5.33594V33.6641C37.4805 36.0549 35.5354 38 33.1445 38H4.81641C2.42557 38 0.480469 36.0549 0.480469 33.6641V5.33594C0.480469 2.9451 2.42557 1 4.81641 1ZM33.1445 35.1094C33.9415 35.1094 34.5898 34.461 34.5898 33.6641V5.33594C34.5898 4.53899 33.9415 3.89062 33.1445 3.89062H4.81641C4.01946 3.89062 3.37109 4.53899 3.37109 5.33594V33.6641C3.37109 34.461 4.01946 35.1094 4.81641 35.1094H20.4274V23.3301H16.0898V18.8496H20.4274V15.7548C20.4274 12.0747 23.3942 9.09375 27.0742 9.09375H30.0371V13.5742H27.0742C25.8475 13.5742 24.9062 14.5155 24.9062 15.7422V18.8496H30.1094L29.3715 23.3301H24.9062V35.1094H33.1445Z" fill="#EC2985"/>
<path d="M20.4274 35.1094V35.3594H20.6774V35.1094H20.4274ZM20.4274 23.3301H20.6774V23.0801H20.4274V23.3301ZM16.0898 23.3301H15.8398V23.5801H16.0898V23.3301ZM16.0898 18.8496V18.5996H15.8398V18.8496H16.0898ZM20.4274 18.8496V19.0996H20.6774V18.8496H20.4274ZM30.0371 9.09375H30.2871V8.84375H30.0371V9.09375ZM30.0371 13.5742V13.8242H30.2871V13.5742H30.0371ZM24.9062 18.8496H24.6562V19.0996H24.9062V18.8496ZM30.1094 18.8496L30.3561 18.8902L30.4039 18.5996H30.1094V18.8496ZM29.3715 23.3301V23.5801H29.5837L29.6182 23.3707L29.3715 23.3301ZM24.9062 23.3301V23.0801H24.6562V23.3301H24.9062ZM24.9062 35.1094H24.6562V35.3594H24.9062V35.1094ZM33.1445 0.75H4.81641V1.25H33.1445V0.75ZM37.7305 5.33594C37.7305 2.80703 35.6734 0.75 33.1445 0.75V1.25C35.3973 1.25 37.2305 3.08317 37.2305 5.33594H37.7305ZM37.7305 33.6641V5.33594H37.2305V33.6641H37.7305ZM33.1445 38.25C35.6734 38.25 37.7305 36.193 37.7305 33.6641H37.2305C37.2305 35.9168 35.3973 37.75 33.1445 37.75V38.25ZM4.81641 38.25H33.1445V37.75H4.81641V38.25ZM0.230469 33.6641C0.230469 36.193 2.2875 38.25 4.81641 38.25V37.75C2.56364 37.75 0.730469 35.9168 0.730469 33.6641H0.230469ZM0.230469 5.33594V33.6641H0.730469V5.33594H0.230469ZM4.81641 0.75C2.2875 0.75 0.230469 2.80703 0.230469 5.33594H0.730469C0.730469 3.08317 2.56364 1.25 4.81641 1.25V0.75ZM34.3398 33.6641C34.3398 34.3229 33.8034 34.8594 33.1445 34.8594V35.3594C34.0795 35.3594 34.8398 34.5991 34.8398 33.6641H34.3398ZM34.3398 5.33594V33.6641H34.8398V5.33594H34.3398ZM33.1445 4.14062C33.8034 4.14062 34.3398 4.67706 34.3398 5.33594H34.8398C34.8398 4.40092 34.0795 3.64062 33.1445 3.64062V4.14062ZM4.81641 4.14062H33.1445V3.64062H4.81641V4.14062ZM3.62109 5.33594C3.62109 4.67706 4.15753 4.14062 4.81641 4.14062V3.64062C3.88139 3.64062 3.12109 4.40092 3.12109 5.33594H3.62109ZM3.62109 33.6641V5.33594H3.12109V33.6641H3.62109ZM4.81641 34.8594C4.15753 34.8594 3.62109 34.3229 3.62109 33.6641H3.12109C3.12109 34.5991 3.88139 35.3594 4.81641 35.3594V34.8594ZM20.4274 34.8594H4.81641V35.3594H20.4274V34.8594ZM20.1774 23.3301V35.1094H20.6774V23.3301H20.1774ZM16.0898 23.5801H20.4274V23.0801H16.0898V23.5801ZM15.8398 18.8496V23.3301H16.3398V18.8496H15.8398ZM20.4274 18.5996H16.0898V19.0996H20.4274V18.5996ZM20.1774 15.7548V18.8496H20.6774V15.7548H20.1774ZM27.0742 8.84375C23.2555 8.84375 20.1774 11.9373 20.1774 15.7548H20.6774C20.6774 12.2121 23.533 9.34375 27.0742 9.34375V8.84375ZM30.0371 8.84375H27.0742V9.34375H30.0371V8.84375ZM30.2871 13.5742V9.09375H29.7871V13.5742H30.2871ZM27.0742 13.8242H30.0371V13.3242H27.0742V13.8242ZM25.1562 15.7422C25.1562 14.6535 25.9856 13.8242 27.0742 13.8242V13.3242C25.7094 13.3242 24.6562 14.3774 24.6562 15.7422H25.1562ZM25.1562 18.8496V15.7422H24.6562V18.8496H25.1562ZM30.1094 18.5996H24.9062V19.0996H30.1094V18.5996ZM29.6182 23.3707L30.3561 18.8902L29.8627 18.809L29.1249 23.2895L29.6182 23.3707ZM24.9062 23.5801H29.3715V23.0801H24.9062V23.5801ZM25.1562 35.1094V23.3301H24.6562V35.1094H25.1562ZM33.1445 34.8594H24.9062V35.3594H33.1445V34.8594Z" fill="white"/>
</svg>
