<svg width="48" height="55" viewBox="0 0 48 55" fill="none" xmlns="http://www.w3.org/2000/svg">
<path fill-rule="evenodd" clip-rule="evenodd" d="M21.2957 39.8189C19.2965 39.8189 17.6758 38.1982 17.6758 36.199C17.6758 34.1998 19.2965 32.5791 21.2957 32.5791C23.2949 32.5791 24.9156 34.1998 24.9156 36.199C24.9156 38.1982 23.2949 39.8189 21.2957 39.8189ZM21.2957 38.009C22.2953 38.009 23.1056 37.1986 23.1056 36.199C23.1056 35.1994 22.2953 34.3891 21.2957 34.3891C20.2961 34.3891 19.4857 35.1994 19.4857 36.199C19.4857 37.1986 20.2961 38.009 21.2957 38.009Z" fill="url(#paint0_linear)"/>
<path fill-rule="evenodd" clip-rule="evenodd" d="M9.52969 29.8643C9.50774 31.3565 9.76052 32.84 10.2754 34.2407C8.58853 36.3304 7.68458 38.9436 7.71974 41.629C7.71974 48.6154 13.8093 54.2986 21.2944 54.2986C28.7795 54.2986 34.8691 48.6154 34.8691 41.629C34.9042 38.9436 34.0003 36.3304 32.3134 34.2407C32.8283 32.84 33.0811 31.3565 33.0591 29.8643C33.0591 25.2977 29.8844 21.5385 24.9143 20.1222V10.8597H25.8193V7.23982H27.6292V5.42986H25.8193V3.61991H27.6292V1.80995H25.8193V0H16.7695V1.80995H14.9596V3.61991H16.7695V5.42986H14.9596V7.23982H16.7695V10.8597H17.6745V20.1222C12.7044 21.5385 9.52969 25.2977 9.52969 29.8643ZM31.2492 29.8643C31.3003 31.2766 31.0256 32.6818 30.4464 33.971L30.1559 34.5294L30.5786 34.9964C32.211 36.8161 33.0968 39.1847 33.0591 41.629C33.0591 47.5158 27.6718 52.4887 21.2944 52.4887C14.917 52.4887 9.52969 47.5158 9.52969 41.629C9.49202 39.1847 10.3778 36.8161 12.0102 34.9964L12.4329 34.5294L12.1424 33.971C11.5632 32.6818 11.2885 31.2766 11.3396 29.8643C11.3396 26.2896 13.7921 23.3068 17.6745 22.0154V29.9385C14.8367 31.5769 13.4532 34.917 14.3013 38.0821C15.1494 41.2473 18.0176 43.4482 21.2944 43.4482C24.5712 43.4482 27.4394 41.2473 28.2875 38.0821C29.1356 34.917 27.7521 31.5769 24.9143 29.9385V22.0154C28.7967 23.3068 31.2492 26.2896 31.2492 29.8643ZM21.2944 41.629C24.2932 41.629 26.7243 39.1979 26.7243 36.1991C26.7213 33.2015 24.292 30.7722 21.2944 30.7692C18.2956 30.7692 15.8645 33.2003 15.8645 36.1991C15.8645 39.1979 18.2956 41.629 21.2944 41.629ZM18.5795 1.80995H20.3894V3.61991H22.1994V1.80995H24.0093V9.04977H18.5795V1.80995ZM23.1044 29.1973V10.8597H19.4844V29.1973C20.6702 28.8799 21.9186 28.8799 23.1044 29.1973Z" fill="url(#paint1_linear)"/>
<rect x="17.6758" y="45.2488" width="7.23982" height="1.80995" fill="url(#paint2_linear)"/>
<rect x="19.4844" y="48.8689" width="3.61991" height="1.80995" fill="url(#paint3_linear)"/>
<path fill-rule="evenodd" clip-rule="evenodd" d="M35.7751 22.7909V16.542L45.7298 13.2244V20.9845C46.9765 21.4253 47.7243 22.7001 47.5007 24.0033C47.2771 25.3065 46.1471 26.2591 44.8248 26.2591C43.5026 26.2591 42.3726 25.3065 42.149 24.0033C41.9254 22.7001 42.6732 21.4253 43.9198 20.9845V19.3556L37.585 21.4669V22.7909C38.8317 23.2316 39.5795 24.5064 39.3559 25.8096C39.1323 27.1129 38.0023 28.0655 36.68 28.0655C35.3578 28.0655 34.2278 27.1129 34.0042 25.8096C33.7806 24.5064 34.5284 23.2316 35.7751 22.7909ZM35.7751 25.3393C35.7751 25.8391 36.1802 26.2443 36.68 26.2443C37.1798 26.2443 37.585 25.8391 37.585 25.3393C37.585 24.8395 37.1798 24.4343 36.68 24.4343C36.1802 24.4343 35.7751 24.8395 35.7751 25.3393ZM37.585 19.5583V17.847L43.9198 15.7348V17.447L37.585 19.5583ZM43.9198 23.5293C43.9198 24.0291 44.325 24.4343 44.8248 24.4343C45.3246 24.4343 45.7298 24.0291 45.7298 23.5293C45.7298 23.0295 45.3246 22.6244 44.8248 22.6244C44.325 22.6244 43.9198 23.0295 43.9198 23.5293Z" fill="url(#paint4_linear)"/>
<path fill-rule="evenodd" clip-rule="evenodd" d="M2.29068 16.4562C1.04403 16.897 0.296224 18.1718 0.519822 19.475C0.743421 20.7782 1.87339 21.7308 3.19566 21.7308C4.51793 21.7308 5.64789 20.7782 5.87149 19.475C6.09509 18.1718 5.34728 16.897 4.10063 16.4562V12.3612L10.4355 9.64627V4.05713L2.29068 7.54853V16.4562ZM4.10063 8.74129L8.62552 6.80283V8.45351L4.10063 10.392V8.74129ZM2.29068 19.0046C2.29068 19.5044 2.69585 19.9096 3.19566 19.9096C3.69546 19.9096 4.10063 19.5044 4.10063 19.0046C4.10063 18.5048 3.69546 18.0997 3.19566 18.0997C2.69585 18.0997 2.29068 18.5048 2.29068 19.0046Z" fill="url(#paint5_linear)"/>
<defs>
<linearGradient id="paint0_linear" x1="-6.75861" y1="64.0995" x2="49.0423" y2="64.0995" gradientUnits="userSpaceOnUse">
<stop stop-color="#EF7EC0"/>
<stop offset="0.293" stop-color="#EB66AD"/>
<stop offset="0.909" stop-color="#E2297C"/>
<stop offset="1" stop-color="#E11F74"/>
</linearGradient>
<linearGradient id="paint1_linear" x1="-7.66488" y1="83.8511" x2="49.041" y2="83.8511" gradientUnits="userSpaceOnUse">
<stop stop-color="#EF7EC0"/>
<stop offset="0.293" stop-color="#EB66AD"/>
<stop offset="0.909" stop-color="#E2297C"/>
<stop offset="1" stop-color="#E11F74"/>
</linearGradient>
<linearGradient id="paint2_linear" x1="-7.66358" y1="53.242" x2="49.0423" y2="53.242" gradientUnits="userSpaceOnUse">
<stop stop-color="#EF7EC0"/>
<stop offset="0.293" stop-color="#EB66AD"/>
<stop offset="0.909" stop-color="#E2297C"/>
<stop offset="1" stop-color="#E11F74"/>
</linearGradient>
<linearGradient id="paint3_linear" x1="-7.66494" y1="63.9503" x2="49.0409" y2="63.9503" gradientUnits="userSpaceOnUse">
<stop stop-color="#EF7EC0"/>
<stop offset="0.293" stop-color="#EB66AD"/>
<stop offset="0.909" stop-color="#E2297C"/>
<stop offset="1" stop-color="#E11F74"/>
</linearGradient>
<linearGradient id="paint4_linear" x1="-7.66386" y1="51.6358" x2="49.042" y2="51.6358" gradientUnits="userSpaceOnUse">
<stop stop-color="#EF7EC0"/>
<stop offset="0.293" stop-color="#EB66AD"/>
<stop offset="0.909" stop-color="#E2297C"/>
<stop offset="1" stop-color="#E11F74"/>
</linearGradient>
<linearGradient id="paint5_linear" x1="-7.66407" y1="63.2254" x2="49.0418" y2="63.2254" gradientUnits="userSpaceOnUse">
<stop stop-color="#EF7EC0"/>
<stop offset="0.293" stop-color="#EB66AD"/>
<stop offset="0.909" stop-color="#E2297C"/>
<stop offset="1" stop-color="#E11F74"/>
</linearGradient>
</defs>
</svg>
