<svg width="51" height="44" viewBox="0 0 51 44" fill="none" xmlns="http://www.w3.org/2000/svg">
<path fill-rule="evenodd" clip-rule="evenodd" d="M49.9487 17.6469L26.248 0.251537C25.7909 -0.0838456 25.17 -0.0838456 24.7132 0.251537L1.01226 17.6469C0.433357 18.0718 0.307576 18.8867 0.731501 19.467C1.15543 20.0473 1.96841 20.1732 2.54722 19.7484L25.4805 2.91629L48.4137 19.7483C48.645 19.9182 48.9137 19.9999 49.1801 19.9999C49.5801 19.9999 49.9749 19.8154 50.2294 19.4669C50.6534 18.8867 50.5276 18.0718 49.9487 17.6469Z" fill="#EC2985"/>
<path fill-rule="evenodd" clip-rule="evenodd" d="M44.1804 20C43.4625 20 42.8804 20.568 42.8804 21.2687V41.4625H32.4808V30.4394C32.4808 26.9414 29.5647 24.0956 25.9805 24.0956C22.3963 24.0956 19.4801 26.9416 19.4801 30.4394V41.4626H9.08042V21.2688C9.08042 20.5681 8.4983 20.0001 7.78044 20.0001C7.06259 20.0001 6.48047 20.5681 6.48047 21.2688V42.7313C6.48047 43.432 7.06259 44 7.78044 44H20.7801C21.4637 44 22.0232 43.4845 22.075 42.8301C22.0781 42.8005 22.0801 42.7681 22.0801 42.7313V30.4395C22.0801 28.3406 23.8297 26.633 25.9805 26.633C28.1312 26.633 29.8809 28.3407 29.8809 30.4395V42.7313C29.8809 42.7679 29.8828 42.7997 29.886 42.829C29.9372 43.4839 30.4968 44 31.1809 44H44.1805C44.8984 44 45.4805 43.432 45.4805 42.7313V21.2688C45.4804 20.568 44.8983 20 44.1804 20Z" fill="#EC2985"/>
</svg>
