<svg width="38" height="39" viewBox="0 0 38 39" fill="none" xmlns="http://www.w3.org/2000/svg">
<path fill-rule="evenodd" clip-rule="evenodd" d="M11.2284 1H26.7326C32.659 1 37.4805 5.82149 37.4805 11.7479V27.2521C37.4805 33.1785 32.659 38 26.7325 38H11.2284C5.30196 38 0.480469 33.1785 0.480469 27.2521V11.7479C0.480469 5.82149 5.30196 1 11.2284 1ZM26.7326 35.1094C31.0651 35.1094 34.5898 31.5846 34.5898 27.2521V11.7479C34.5898 7.41538 31.0651 3.89062 26.7325 3.89062H11.2284C6.89585 3.89062 3.37109 7.41538 3.37109 11.7479V27.2521C3.37109 31.5846 6.89585 35.1094 11.2284 35.1094H26.7326Z" fill="#EC2985"/>
<path d="M26.7326 0.75H11.2284V1.25H26.7326V0.75ZM37.7305 11.7479C37.7305 5.68342 32.7971 0.75 26.7326 0.75V1.25C32.5209 1.25 37.2305 5.95956 37.2305 11.7479H37.7305ZM37.7305 27.2521V11.7479H37.2305V27.2521H37.7305ZM26.7325 38.25C32.7971 38.25 37.7305 33.3166 37.7305 27.2521H37.2305C37.2305 33.0404 32.5209 37.75 26.7325 37.75V38.25ZM11.2284 38.25H26.7325V37.75H11.2284V38.25ZM0.230469 27.2521C0.230469 33.3166 5.16389 38.25 11.2284 38.25V37.75C5.44003 37.75 0.730469 33.0404 0.730469 27.2521H0.230469ZM0.230469 11.7479V27.2521H0.730469V11.7479H0.230469ZM11.2284 0.75C5.16389 0.75 0.230469 5.68342 0.230469 11.7479H0.730469C0.730469 5.95956 5.44003 1.25 11.2284 1.25V0.75ZM34.3398 27.2521C34.3398 31.4466 30.927 34.8594 26.7326 34.8594V35.3594C31.2032 35.3594 34.8398 31.7227 34.8398 27.2521H34.3398ZM34.3398 11.7479V27.2521H34.8398V11.7479H34.3398ZM26.7325 4.14062C30.927 4.14062 34.3398 7.55345 34.3398 11.7479H34.8398C34.8398 7.27731 31.2032 3.64062 26.7325 3.64062V4.14062ZM11.2284 4.14062H26.7325V3.64062H11.2284V4.14062ZM3.62109 11.7479C3.62109 7.55345 7.03392 4.14062 11.2284 4.14062V3.64062C6.75778 3.64062 3.12109 7.27731 3.12109 11.7479H3.62109ZM3.62109 27.2521V11.7479H3.12109V27.2521H3.62109ZM11.2284 34.8594C7.03392 34.8594 3.62109 31.4465 3.62109 27.2521H3.12109C3.12109 31.7227 6.75778 35.3594 11.2284 35.3594V34.8594ZM26.7326 34.8594H11.2284V35.3594H26.7326V34.8594Z" fill="white"/>
<path fill-rule="evenodd" clip-rule="evenodd" d="M9.48047 20C9.48047 14.4859 13.9664 10 19.4805 10C24.9945 10 29.4805 14.4859 29.4805 20C29.4805 25.5141 24.9945 30 19.4805 30C13.9664 30 9.48047 25.5141 9.48047 20ZM12.379 20C12.379 23.9157 15.5647 27.1014 19.4805 27.1014C23.3962 27.1014 26.5819 23.9157 26.5819 20C26.5819 16.0843 23.3962 12.8986 19.4805 12.8986C15.5647 12.8986 12.379 16.0843 12.379 20Z" fill="#EC2985"/>
<path d="M19.4805 9.75C13.8283 9.75 9.23047 14.3479 9.23047 20H9.73047C9.73047 14.624 14.1045 10.25 19.4805 10.25V9.75ZM29.7305 20C29.7305 14.3479 25.1326 9.75 19.4805 9.75V10.25C24.8565 10.25 29.2305 14.624 29.2305 20H29.7305ZM19.4805 30.25C25.1326 30.25 29.7305 25.6521 29.7305 20H29.2305C29.2305 25.376 24.8565 29.75 19.4805 29.75V30.25ZM9.23047 20C9.23047 25.6521 13.8283 30.25 19.4805 30.25V29.75C14.1045 29.75 9.73047 25.376 9.73047 20H9.23047ZM19.4805 26.8514C15.7028 26.8514 12.629 23.7777 12.629 20H12.129C12.129 24.0538 15.4267 27.3514 19.4805 27.3514V26.8514ZM26.3319 20C26.3319 23.7777 23.2581 26.8514 19.4805 26.8514V27.3514C23.5343 27.3514 26.8319 24.0538 26.8319 20H26.3319ZM19.4805 13.1486C23.2581 13.1486 26.3319 16.2223 26.3319 20H26.8319C26.8319 15.9462 23.5343 12.6486 19.4805 12.6486V13.1486ZM12.629 20C12.629 16.2223 15.7028 13.1486 19.4805 13.1486V12.6486C15.4267 12.6486 12.129 15.9462 12.129 20H12.629Z" fill="white"/>
<path fill-rule="evenodd" clip-rule="evenodd" d="M28.9805 11C29.8089 11 30.4805 10.3284 30.4805 9.5C30.4805 8.67157 29.8089 8 28.9805 8C28.152 8 27.4805 8.67157 27.4805 9.5C27.4805 10.3284 28.152 11 28.9805 11Z" fill="#EC2985"/>
</svg>
