<svg width="51" height="44" viewBox="0 0 51 44" fill="none" xmlns="http://www.w3.org/2000/svg">
<path fill-rule="evenodd" clip-rule="evenodd" d="M2.21857 24.2459C1.22934 23.9437 0.546059 23.0581 0.48487 22.0058C0.42368 20.9535 1.00498 19.995 1.95341 19.5574L48.7632 0.0950419C49.1916 -0.0820782 49.6709 -0.00914642 50.0278 0.293C50.3746 0.584727 50.5479 1.06399 50.4561 1.52242L42.8381 41.1869C42.5933 42.3538 41.5939 43.1873 40.4415 43.1873C39.9418 43.1873 39.4625 43.0311 39.0545 42.7393L29.8761 36.2484L23.4003 43.5728C23.1555 43.8541 22.819 44 22.462 44C22.3295 44 22.1867 43.9792 22.0541 43.9271C21.5748 43.7604 21.2382 43.3124 21.2076 42.8018L20.5346 29.9033L2.21857 24.2459ZM23.1147 31.4661L23.5328 39.6033L27.8059 34.7793L23.1147 31.4661ZM40.4007 40.593L23.696 28.7781L47.1213 5.62744L40.4007 40.593ZM21.3912 27.4966L44.5514 4.6064L3.09561 21.8496L21.3912 27.4966Z" fill="#EC2985"/>
</svg>
