<svg width="51" height="50" viewBox="0 0 51 50" fill="none" xmlns="http://www.w3.org/2000/svg">
<path fill-rule="evenodd" clip-rule="evenodd" d="M25.4753 0C32.1509 0 38.4253 2.60288 43.1466 7.3251C47.8678 12.0473 50.4702 18.323 50.4805 25C50.4805 27.2634 50.1719 29.5062 49.5753 31.6667C49.3902 32.3251 48.7113 32.716 48.053 32.5309C47.3947 32.3457 47.0038 31.6667 47.189 31.0082C47.7238 29.0638 48.0016 27.0473 48.0016 25C48.0016 12.572 37.9008 2.46914 25.4753 2.46914C13.0499 2.46914 2.9491 12.572 2.9491 25C2.9491 37.428 13.0499 47.5309 25.4753 47.5309C33.0869 47.5309 37.6847 44.6502 38.8676 41.8416C39.5054 40.3086 39.1454 38.8066 37.8288 37.4897L37.767 37.428C37.7259 37.4691 37.6847 37.5103 37.6539 37.5514L37.6127 37.5926C36.5636 38.7346 35.2161 39.3107 33.6218 39.3107C33.4778 39.3107 33.3338 39.3107 33.1898 39.3004C30.9063 39.1461 28.88 38.3025 27.3679 37.5823C23.4284 35.679 19.9826 32.9733 17.1231 29.5576C14.7677 26.7181 13.1836 24.0638 12.1242 21.2037C11.6819 20.0206 11.1161 18.2099 11.2704 16.2551C11.3733 15 11.8876 13.9095 12.7722 13.0247L14.9837 10.8128L15.0042 10.7922C15.7242 10.1029 16.5677 9.7428 17.4523 9.7428C18.3369 9.7428 19.17 10.1029 19.8695 10.7922C20.3015 11.1934 20.7026 11.6049 21.0935 12.0062C21.2889 12.2119 21.4844 12.4074 21.6901 12.6132L23.449 14.3724C24.961 15.8848 24.961 17.8395 23.449 19.3519C23.3869 19.414 23.3248 19.4749 23.2631 19.5355C23.1408 19.6555 23.0201 19.774 22.9038 19.8971C22.4821 20.3292 22.0501 20.7716 21.5872 21.2037C21.9575 21.965 22.4513 22.7366 23.1713 23.642C24.8067 25.6481 26.5142 27.2119 28.3965 28.4053C28.5714 28.5185 28.7771 28.6214 29.0034 28.7346C29.096 28.7757 29.1783 28.8169 29.2708 28.8683L31.1223 27.0165C31.8423 26.2963 32.6961 25.9156 33.5909 25.9156C34.4858 25.9156 35.3293 26.3066 36.0287 27.0267L39.5876 30.5864C41.0483 32.0473 41.0483 34.0329 39.6082 35.5453C39.5983 35.5552 39.5873 35.5651 39.5759 35.5754C39.5519 35.5971 39.5263 35.6202 39.5054 35.6481L39.5774 35.7202C41.5934 37.7366 42.1694 40.2984 41.1511 42.7572C40.2974 44.8045 38.3636 46.6461 35.6996 47.9321C32.8915 49.2798 29.3531 50 25.4753 50C18.7997 50 12.5253 47.3971 7.80406 42.6749C3.08281 37.9527 0.480469 31.677 0.480469 25C0.480469 18.323 3.08281 12.0473 7.80406 7.3251C12.5253 2.60288 18.7997 0 25.4753 0ZM33.7945 37C34.7286 37 35.4002 36.718 35.9984 36.081C36.4182 35.5902 36.859 35.1621 37.2788 34.7548L37.2999 34.7346C37.5752 34.4708 37.8305 34.2262 38.0659 33.9716L38.0764 33.9612C38.6116 33.4077 38.6116 32.9378 38.0974 32.4261L34.4662 28.8129L34.4452 28.792C34.2878 28.6249 34.0359 28.4265 33.763 28.4265C33.4692 28.4265 33.2068 28.6353 33.0284 28.8129L30.772 31.0581C30.4047 31.434 29.9744 31.622 29.5127 31.622C29.2398 31.622 28.9669 31.5593 28.6941 31.4236C28.6521 31.4027 28.6101 31.3818 28.5786 31.3609C28.4002 31.246 28.1903 31.1416 27.9594 31.0267C27.6866 30.891 27.4032 30.7448 27.1199 30.5673C24.9684 29.2097 23.0269 27.4553 21.1798 25.1892L21.1693 25.1788C20.1409 23.8839 19.4692 22.7978 18.9864 21.6387C18.9812 21.623 18.9759 21.61 18.9707 21.5969C18.9654 21.5839 18.9602 21.5708 18.9549 21.5551C18.9534 21.55 18.9517 21.5447 18.95 21.5392C18.8611 21.2529 18.613 20.4543 19.3852 19.6859C19.3927 19.6785 19.3988 19.6711 19.4045 19.6641C19.415 19.6515 19.4242 19.6404 19.4377 19.6337C19.8901 19.2335 20.3091 18.8134 20.7427 18.3786C20.8522 18.2688 20.9627 18.158 21.0749 18.0464L21.6416 17.4825C22.1978 16.929 22.1978 16.5217 21.6416 15.9683L19.847 14.1825C19.7421 14.0781 19.6371 13.9711 19.5322 13.8641C19.4272 13.757 19.3223 13.65 19.2173 13.5455L19.202 13.5299C18.8089 13.1284 18.4356 12.7472 18.0419 12.3864L18.0104 12.3551C17.853 12.188 17.6011 12 17.3073 12C17.0134 12 16.7406 12.1984 16.5621 12.3655L14.3058 14.6003C13.8125 15.0806 13.5606 15.6341 13.4977 16.3129C13.4137 17.4616 13.6341 18.6729 14.2218 20.2602C15.2083 22.8918 16.6881 25.3459 18.9025 27.9983C21.5891 31.1938 24.8215 33.7105 28.5052 35.4858C29.838 36.1228 31.6221 36.8642 33.5112 36.9896C33.6056 37 33.7001 37 33.7945 37Z" fill="#EC2985"/>
</svg>
