<svg width="38" height="29" viewBox="0 0 38 29" fill="none" xmlns="http://www.w3.org/2000/svg">
<path d="M24.6756 12.8373L16.5015 8.36478C16.0314 8.10762 15.4759 8.11722 15.0152 8.39019C14.5542 8.66344 14.2793 9.14615 14.2793 9.68194V18.5503C14.2793 19.0835 14.5526 19.5654 15.0104 19.8389C15.2495 19.9818 15.5146 20.0535 15.7802 20.0535C16.0235 20.0535 16.2674 19.9933 16.4919 19.8725L24.6663 15.477C25.1516 15.2159 25.4544 14.7115 25.4567 14.1601C25.4587 13.6088 25.1595 13.1021 24.6756 12.8373ZM16.4475 17.4347V10.8066L22.5568 14.1494L16.4475 17.4347Z" fill="#EC2985"/>
<path d="M37.2082 7.09475L37.2065 7.07781C37.1752 6.78 36.8632 4.13101 35.5755 2.78365C34.087 1.19889 32.3994 1.00637 31.5879 0.914062C31.5207 0.906441 31.4592 0.899384 31.4041 0.892044L31.3395 0.885269C26.448 0.529587 19.0608 0.481033 18.9869 0.480751L18.9804 0.480469L18.9739 0.480751C18.8999 0.481033 11.5128 0.529587 6.57729 0.885269L6.51208 0.892044C6.45958 0.899101 6.40171 0.905594 6.33876 0.912933C5.5365 1.00552 3.86706 1.19833 2.37433 2.84039C1.14779 4.17336 0.793242 6.7656 0.756827 7.05692L0.752593 7.09475C0.741584 7.21867 0.480469 10.1689 0.480469 13.1306V15.8993C0.480469 18.8611 0.741584 21.8112 0.752593 21.9355L0.754569 21.9541C0.785903 22.2471 1.09755 24.8475 2.37941 26.1955C3.77899 27.7271 5.54864 27.9298 6.50051 28.0388C6.65097 28.056 6.78054 28.0707 6.86889 28.0862L6.95443 28.0981C9.7787 28.3668 18.6337 28.4992 19.0092 28.5046L19.0205 28.5049L19.0318 28.5046C19.1057 28.5043 26.4926 28.4557 31.3841 28.1001L31.4487 28.0933C31.5105 28.0851 31.58 28.0778 31.6562 28.0698C32.4539 27.9852 34.1143 27.8093 35.5865 26.1895C36.813 24.8563 37.1678 22.264 37.204 21.973L37.2082 21.9352C37.2192 21.811 37.4806 18.8611 37.4806 15.8993V13.1306C37.4803 10.1689 37.2192 7.21896 37.2082 7.09475ZM35.3121 15.8993C35.3121 18.6406 35.0727 21.4638 35.0501 21.7229C34.9581 22.4368 34.5841 24.0769 33.9865 24.7264C33.0651 25.7401 32.1186 25.8406 31.4275 25.9137C31.344 25.9225 31.2666 25.931 31.1966 25.9397C26.4655 26.2818 19.3572 26.3343 19.0298 26.3363C18.6625 26.331 9.93707 26.1974 7.19889 25.9431C7.05859 25.9202 6.907 25.9027 6.74723 25.8847C5.93678 25.7918 4.8274 25.6648 3.97433 24.7264L3.95429 24.705C3.36713 24.0933 3.00383 22.5596 2.91152 21.7314C2.8943 21.5355 2.64871 18.679 2.64871 15.8993V13.1306C2.64871 10.3924 2.88753 7.57238 2.91067 7.30788C3.02048 6.46694 3.40157 4.92622 3.97433 4.30349C4.92394 3.25903 5.92521 3.14329 6.58745 3.06679C6.65069 3.05945 6.70968 3.05267 6.76417 3.04562C11.5642 2.70179 18.7235 2.6507 18.9804 2.64872C19.2373 2.65041 26.3941 2.70179 31.1515 3.04562C31.2099 3.05296 31.2737 3.0603 31.3423 3.0682C32.0234 3.14583 33.0529 3.26326 33.9978 4.27103L34.0065 4.28034C34.5937 4.89206 34.957 6.45255 35.0493 7.29743C35.0656 7.48233 35.3121 10.345 35.3121 13.1306V15.8993Z" fill="#EC2985"/>
</svg>
