<svg width="307" height="235" viewBox="0 0 307 235" fill="none" xmlns="http://www.w3.org/2000/svg">
<path d="M266.823 20.1372C257.188 8.08869 248.691 6.97435 232.054 8.74734C215.402 10.3284 173.914 16.6498 138.038 22.5284C102.093 28.4183 60.7401 35.6708 44.4692 39.4666C28.1729 43.1077 20.4562 46.8611 15.1041 61.383C9.59174 75.8959 9.37861 99.3726 15.9642 139.564C15.9698 139.598 15.9726 139.615 15.9726 139.615C15.9783 139.65 15.9811 139.667 15.9811 139.667L15.9867 139.701C22.5441 179.72 30.2667 202.073 40.1 213.931C49.804 225.968 58.295 227.048 74.9293 225.469C91.5554 223.734 133.077 217.513 169.022 211.623C204.899 205.744 246.217 198.391 262.548 194.745C278.851 190.926 286.553 187.193 291.839 172.699C297.443 158.312 297.593 134.67 291.036 94.6503C291.036 94.6503 291.027 94.5987 291.022 94.5643C291.022 94.5643 291.016 94.53 291.013 94.5128C284.425 54.3044 276.765 32.1178 266.823 20.1372ZM127.565 174.286L110.665 71.1435L205.067 108.631L127.565 174.286Z" fill="#EC2985"/>
</svg>
