<svg width="123" height="122" viewBox="0 0 123 122" fill="none" xmlns="http://www.w3.org/2000/svg">
<path fill-rule="evenodd" clip-rule="evenodd" d="M61.4805 0C77.7739 0 93.0928 6.34517 104.614 17.8664C116.135 29.3877 122.48 44.7066 122.48 61C122.48 77.2934 116.135 92.6123 104.614 104.134C93.0928 115.655 77.7739 122 61.4805 122C45.1871 122 29.8682 115.655 18.3469 104.134C6.82564 92.6123 0.480469 77.2934 0.480469 61C0.480469 44.7066 6.82564 29.3877 18.3469 17.8664C29.8682 6.34517 45.1871 0 61.4805 0ZM108.056 33.9951C98.7194 17.9549 81.3397 7.14844 61.4805 7.14844C41.6212 7.14844 24.2416 17.9549 14.9049 33.9951H58.9999L57.2361 46.1074H65.7249L63.961 33.9951H108.056ZM104.726 41.1435L102.386 57.2052C102.018 59.7313 99.8158 61.6357 97.2636 61.6357H79.6885C77.1354 61.6357 74.9341 59.7313 74.5655 57.2052L72.2264 41.1435H104.726ZM48.3955 57.2052L50.7345 41.1435H18.2352L20.5752 57.2052C20.9429 59.7313 23.1451 61.6357 25.6973 61.6357H43.2724C45.8256 61.6357 48.0269 59.7313 48.3955 57.2052ZM61.4805 114.852C31.7865 114.852 7.62891 90.6939 7.62891 61C7.62891 54.2834 8.86871 47.8526 11.1249 41.9189L13.5012 58.2356C14.3771 64.2484 19.6202 68.7842 25.6973 68.7842H43.2724C49.3495 68.7842 54.5927 64.2494 55.4695 58.2356L56.1945 53.2559H66.7664L67.4915 58.2356C68.3674 64.2484 73.6114 68.7842 79.6885 68.7842H97.2636C103.341 68.7842 108.584 64.2494 109.46 58.2356L111.836 41.9189C114.092 47.8526 115.332 54.2834 115.332 61C115.332 90.6939 91.1744 114.852 61.4805 114.852ZM42.5771 81.3333C46.494 88.2983 53.9232 92.6246 61.9646 92.6246C70.006 92.6246 77.4352 88.2983 81.3521 81.3333L87.6233 84.7899C82.44 94.005 72.6088 99.7302 61.9646 99.7302C51.3203 99.7302 41.4892 94.005 36.3059 84.7899L42.5771 81.3333Z" fill="#EEEEEE"/>
</svg>
