<svg width="105" height="116" viewBox="0 0 105 116" fill="none" xmlns="http://www.w3.org/2000/svg">
<path fill-rule="evenodd" clip-rule="evenodd" d="M52.4977 116C23.5491 116 0 93.3537 0 65.5206V39H8.03579V65.5206C8.03579 89.087 27.9822 108.265 52.4977 108.265C77.0178 108.265 96.9642 89.087 96.9642 65.5206V39H105V65.5206C105 93.3537 81.4509 116 52.4977 116ZM52.9056 8.0531C42.046 8.0531 33.209 16.3595 33.209 26.5716V65.2337C33.209 75.4458 42.046 83.7522 52.9056 83.7522C63.7701 83.7522 72.6119 75.4458 72.6119 65.2337V26.5716C72.6119 16.3595 63.7701 8.0531 52.9056 8.0531ZM52.4976 91C37.3396 91 25 79.2412 25 64.7865V26.218C25 11.7633 37.3396 0 52.4976 0C67.6604 0 80 11.7633 80 26.218V64.7865C80 79.2412 67.6604 91 52.4976 91Z" fill="#EEEEEE"/>
</svg>
