<svg width="117" height="48" viewBox="0 0 117 48" fill="none" xmlns="http://www.w3.org/2000/svg">
<path fill-rule="evenodd" clip-rule="evenodd" d="M0.0332031 34.1614H116.93V0.0234375H0.0332031V34.1614ZM1.42523 32.8218H115.538V1.36435H1.42523V32.8218Z" fill="#231F20"/>
<path fill-rule="evenodd" clip-rule="evenodd" d="M54.4296 24.8839V17.208C54.4296 14.8112 52.4226 12.8608 49.9563 12.8608C47.4886 12.8608 45.4815 14.8112 45.4815 17.208V24.8839H44.0058V17.208C44.0058 14.8112 41.9988 12.8608 39.5318 12.8608C37.0648 12.8608 35.0578 14.8112 35.0578 17.208V24.8839H33.582V17.208C33.582 14.0198 36.2511 11.426 39.5318 11.426C41.6877 11.426 43.7045 12.5979 44.744 14.4315C45.7828 12.5979 47.8003 11.426 49.9563 11.426C53.237 11.426 55.9053 14.0198 55.9053 17.208V24.8839H54.4296Z" fill="#231F20"/>
<path fill-rule="evenodd" clip-rule="evenodd" d="M54.5683 24.7492V17.2078C54.5683 14.737 52.499 12.7261 49.9558 12.7261C47.4126 12.7261 45.3434 14.737 45.3434 17.2078V24.7492H44.1445V17.2078C44.1445 14.737 42.0752 12.7261 39.532 12.7261C36.9888 12.7261 34.9196 14.737 34.9196 17.2078V24.7492H33.7207V17.2078C33.7207 14.0943 36.3275 11.561 39.532 11.561C41.7411 11.561 43.7677 12.7961 44.7436 14.7234C45.7202 12.7961 47.7461 11.561 49.9558 11.561C53.1597 11.561 55.7672 14.0943 55.7672 17.2078V24.7492H54.5683Z" fill="#231F20"/>
<path fill-rule="evenodd" clip-rule="evenodd" d="M84.3688 25.2886C81.9353 25.2886 79.7948 24.1453 78.6448 22.2309L78.5316 22.0447L79.8067 21.3212L79.9185 21.508C80.8007 22.9775 82.4645 23.8545 84.3688 23.8545C87.0133 23.8545 88.8694 22.4313 89.1322 20.218L78.3281 17.6106V17.0495C78.3281 13.7383 80.907 11.4265 84.5995 11.4265C87.0175 11.4265 89.1511 12.5576 90.3052 14.4516L90.4192 14.6378L89.149 15.3688L89.035 15.1833C88.1493 13.7288 86.4911 12.8606 84.5995 12.8606C81.9549 12.8606 80.0989 14.2839 79.8367 16.4965L90.6401 19.1038V19.665C90.6401 22.9761 88.0612 25.2886 84.3688 25.2886Z" fill="#231F20"/>
<path fill-rule="evenodd" clip-rule="evenodd" d="M84.3683 25.1539C81.9838 25.1539 79.8887 24.0357 78.7632 22.1634L78.7213 22.0927L79.7559 21.5058L79.7985 21.5757C80.7059 23.0873 82.4144 23.9888 84.3683 23.9888C87.1436 23.9888 89.0639 22.4711 89.2821 20.1151L78.4668 17.5051V17.0492C78.4668 13.8176 80.9883 11.5608 84.599 11.5608C86.9681 11.5608 89.0563 12.6674 90.1853 14.5207L90.2286 14.5907L89.1968 15.1844L89.1541 15.1145C88.2425 13.6185 86.5396 12.7259 84.599 12.7259C81.8237 12.7259 79.9034 14.2435 79.686 16.5988L90.5005 19.2096V19.6647C90.5005 22.8971 87.979 25.1539 84.3683 25.1539Z" fill="#231F20"/>
<path fill-rule="evenodd" clip-rule="evenodd" d="M100.19 12.8606C97.167 12.8606 95.0558 14.7893 95.0558 17.5502V18.4958L104.833 16.5712C104.702 15.6296 104.256 14.7839 103.538 14.1188C102.663 13.3069 101.474 12.8606 100.19 12.8606ZM100.19 25.2886C96.4833 25.2886 93.5801 22.7146 93.5801 19.4286V17.5502C93.5801 15.7295 94.2596 14.1724 95.5438 13.0474C96.7385 12.0019 98.389 11.4265 100.19 11.4265C101.856 11.4265 103.406 12.0141 104.556 13.0807C105.712 14.1527 106.349 15.5984 106.348 17.15V17.7363L95.0901 19.9516C95.383 22.1853 97.5515 23.8545 100.19 23.8545C102.168 23.8545 103.992 22.8946 104.729 21.4659L104.829 21.2723L106.147 21.915L106.049 22.1086C105.052 24.0406 102.753 25.2886 100.19 25.2886Z" fill="#231F20"/>
<path fill-rule="evenodd" clip-rule="evenodd" d="M100.19 12.7259C97.0862 12.7259 94.9176 14.7096 94.9176 17.5506V18.66L104.986 16.6783C104.874 15.6566 104.408 14.7388 103.634 14.0207C102.733 13.1858 101.51 12.7259 100.19 12.7259ZM100.19 25.1539C96.5619 25.1539 93.7188 22.6389 93.7188 19.4283V17.5506C93.7188 15.768 94.3822 14.2456 95.637 13.1477C96.8065 12.124 98.4242 11.5608 100.19 11.5608C101.82 11.5608 103.337 12.1355 104.461 13.1783C105.59 14.2252 106.21 15.6355 106.209 17.1505V17.626L94.9379 19.8448C95.1749 22.2123 97.4182 23.9888 100.19 23.9888C102.219 23.9888 104.094 22.999 104.853 21.5261L104.891 21.4535L105.962 21.9752L105.924 22.0486C104.952 23.9344 102.701 25.1539 100.19 25.1539Z" fill="#231F20"/>
<path fill-rule="evenodd" clip-rule="evenodd" d="M16.2815 12.8401C13.5286 12.8401 11.2895 15.0161 11.2895 17.6907V19.0487C11.2895 21.7233 13.5286 23.8992 16.2815 23.8992C19.0344 23.8992 21.2736 21.7233 21.2736 19.0487V17.6907C21.2736 15.0161 19.0344 12.8401 16.2815 12.8401ZM16.2815 25.334C12.7149 25.334 9.81445 22.514 9.81445 19.0487V17.6907C9.81445 14.2246 12.7149 11.406 16.2815 11.406C19.8482 11.406 22.7486 14.2246 22.7486 17.6907V24.9882H21.2736V23.0364C20.0495 24.4821 18.2123 25.334 16.2815 25.334Z" fill="#231F20"/>
<path fill-rule="evenodd" clip-rule="evenodd" d="M16.2818 12.7054C13.4527 12.7054 11.1513 14.9418 11.1513 17.6904V19.0484C11.1513 21.7978 13.4527 24.0342 16.2818 24.0342C19.1109 24.0342 21.4122 21.7978 21.4122 19.0484V17.6904C21.4122 14.9418 19.1109 12.7054 16.2818 12.7054ZM16.2818 25.1993C12.792 25.1993 9.95312 22.4397 9.95312 19.0484V17.6904C9.95312 14.2998 12.792 11.5403 16.2818 11.5403C19.7715 11.5403 22.6104 14.2998 22.6104 17.6904V24.8535H21.4122V22.6408C20.2196 24.2475 18.3217 25.1993 16.2818 25.1993Z" fill="#231F20"/>
<path fill-rule="evenodd" clip-rule="evenodd" d="M26.1621 19.4471H29.9734V18.0137H26.1621V19.4471Z" fill="#231F20"/>
<path fill-rule="evenodd" clip-rule="evenodd" d="M26.3008 19.3126H29.8353V18.1482H26.3008V19.3126Z" fill="#231F20"/>
<path fill-rule="evenodd" clip-rule="evenodd" d="M26.2461 19.3656H29.8896V18.0952H26.2461V19.3656Z" fill="#231F20"/>
<path fill-rule="evenodd" clip-rule="evenodd" d="M26.3848 19.2311H29.7508V18.2297H26.3848V19.2311Z" fill="#231F20"/>
<path fill-rule="evenodd" clip-rule="evenodd" d="M67.3589 25.2884C62.9687 25.2884 59.3965 21.8176 59.3965 17.55V13.4209H60.8722V17.55C60.8722 21.0262 63.7824 23.8543 67.3589 23.8543C70.936 23.8543 73.8462 21.0262 73.8462 17.55V13.4209H75.3219V17.55C75.3219 21.8176 71.7497 25.2884 67.3589 25.2884Z" fill="#EC2985"/>
<path fill-rule="evenodd" clip-rule="evenodd" d="M67.3584 25.154C63.0445 25.154 59.5352 21.743 59.5352 17.5507V13.5562H60.7327V17.5507C60.7327 21.1003 63.7051 23.9889 67.3584 23.9889C71.0124 23.9889 73.9849 21.1003 73.9849 17.5507V13.5562H75.1824V17.5507C75.1824 21.743 71.6731 25.154 67.3584 25.154Z" fill="#EC2985"/>
<path fill-rule="evenodd" clip-rule="evenodd" d="M67.3586 9.08303C65.8584 9.08303 64.6378 10.2692 64.6378 11.7277V17.53C64.6378 18.9879 65.8584 20.1741 67.3586 20.1741C68.8588 20.1741 70.0808 18.9879 70.0808 17.53V11.7277C70.0808 10.2692 68.8588 9.08303 67.3586 9.08303ZM67.3586 21.6082C65.044 21.6082 63.1621 19.7787 63.1621 17.53V11.7277C63.1621 9.47841 65.044 7.64893 67.3586 7.64893C69.6732 7.64893 71.5558 9.47841 71.5558 11.7277V17.53C71.5558 19.7787 69.6732 21.6082 67.3586 21.6082Z" fill="#EC2985"/>
<path fill-rule="evenodd" clip-rule="evenodd" d="M67.3589 8.94828C65.7825 8.94828 64.4997 10.1949 64.4997 11.7275V17.5298C64.4997 19.0624 65.7825 20.309 67.3589 20.309C68.936 20.309 70.2194 19.0624 70.2194 17.5298V11.7275C70.2194 10.1949 68.936 8.94828 67.3589 8.94828ZM67.3589 21.4734C65.1219 21.4734 63.3008 19.7044 63.3008 17.5298V11.7275C63.3008 9.5529 65.1219 7.7832 67.3589 7.7832C69.5966 7.7832 71.4176 9.5529 71.4176 11.7275V17.5298C71.4176 19.7044 69.5966 21.4734 67.3589 21.4734Z" fill="#EC2985"/>
<path fill-rule="evenodd" clip-rule="evenodd" d="M1.54703 47.254C0.934652 47.254 0.41944 47.1127 0 46.8301V45.9822C0.170572 46.1256 0.395672 46.2492 0.675298 46.3559C0.957721 46.4571 1.23735 46.5074 1.51208 46.5074C1.74068 46.5074 1.92942 46.468 2.07623 46.3864C2.22373 46.3056 2.29783 46.1928 2.29783 46.0502C2.29783 45.896 2.22793 45.7866 2.08811 45.722C2.03009 45.6881 1.95249 45.6548 1.85532 45.6208L1.71621 45.5753L1.39044 45.4795L1.08775 45.383C1.0451 45.3715 0.953527 45.3402 0.814413 45.2873C0.694173 45.2417 0.60679 45.2017 0.552962 45.1684C0.350931 45.0325 0.223002 44.9177 0.168475 44.8239C0.0761983 44.6426 0.0293608 44.4585 0.0293608 44.2696C0.0293608 43.9191 0.167077 43.6446 0.442509 43.4449C0.717242 43.2411 1.09194 43.1392 1.56451 43.1392C2.04197 43.1392 2.48588 43.2485 2.89693 43.4673V44.2587C2.48169 44.0101 2.04197 43.8858 1.5764 43.8858C1.11501 43.8858 0.884319 44.0155 0.884319 44.2757C0.884319 44.3885 0.955624 44.4782 1.09963 44.5468C1.18422 44.5923 1.29537 44.6317 1.43099 44.665C1.61345 44.7146 1.76095 44.7553 1.8735 44.79C2.20975 44.8912 2.50476 45.0298 2.75642 45.2017C3.02836 45.3871 3.16398 45.6623 3.16398 46.0271C3.16398 46.4082 3.01088 46.7071 2.70469 46.9265C2.3985 47.1446 2.01261 47.254 1.54703 47.254Z" fill="#231F20"/>
<path fill-rule="evenodd" clip-rule="evenodd" d="M10.3402 47.254C9.70822 47.254 9.18322 47.0617 8.76448 46.6765C8.34504 46.2859 8.13672 45.7927 8.13672 45.1969C8.13672 44.5943 8.34364 44.0998 8.75819 43.7159C9.17763 43.3321 9.70473 43.1392 10.3402 43.1392C10.7358 43.1392 11.0945 43.2214 11.416 43.3885V44.2078C11.1022 44.004 10.7456 43.9021 10.3465 43.9021C9.96198 43.9021 9.63831 44.025 9.37477 44.2696C9.11891 44.5108 8.99098 44.8199 8.99098 45.1969C8.99098 45.5733 9.1231 45.8837 9.38665 46.129C9.646 46.3701 9.97736 46.4904 10.3814 46.4904C10.8267 46.4904 11.1993 46.3756 11.4978 46.146V46.9652C11.1686 47.1575 10.7827 47.254 10.3402 47.254Z" fill="#231F20"/>
<path fill-rule="evenodd" clip-rule="evenodd" d="M17.704 47.1748H16.8672V43.219H17.704V44.6986H19.5418V43.219H20.373V47.1748H19.5418V45.4391H17.704V47.1748Z" fill="#231F20"/>
<path fill-rule="evenodd" clip-rule="evenodd" d="M26.7641 46.1235C27.0046 46.3681 27.3045 46.4904 27.6659 46.4904C28.0224 46.4904 28.3209 46.3681 28.5607 46.1235C28.8019 45.879 28.9221 45.5699 28.9221 45.1969C28.9221 44.8239 28.8019 44.5148 28.5607 44.2696C28.3209 44.025 28.0224 43.9021 27.6659 43.9021C27.3045 43.9021 27.0046 44.025 26.7641 44.2696C26.5278 44.5108 26.4096 44.8199 26.4096 45.1969C26.4096 45.5733 26.5278 45.8824 26.7641 46.1235ZM25.5547 45.1969C25.5547 44.6161 25.7546 44.1303 26.1538 43.7383C26.5523 43.3389 27.057 43.1392 27.6659 43.1392C28.2699 43.1392 28.7725 43.3389 29.1717 43.7383C29.575 44.1378 29.7771 44.6235 29.7771 45.1969C29.7771 45.7662 29.575 46.2513 29.1717 46.6548C28.7725 47.0536 28.2699 47.254 27.6659 47.254C27.057 47.254 26.5523 47.0536 26.1538 46.6548C25.7546 46.2553 25.5547 45.7696 25.5547 45.1969Z" fill="#231F20"/>
<path fill-rule="evenodd" clip-rule="evenodd" d="M35.9067 46.1235C36.1471 46.3681 36.447 46.4904 36.8084 46.4904C37.165 46.4904 37.4635 46.3681 37.7033 46.1235C37.9444 45.879 38.0647 45.5699 38.0647 45.1969C38.0647 44.8239 37.9444 44.5148 37.7033 44.2696C37.4635 44.025 37.165 43.9021 36.8084 43.9021C36.447 43.9021 36.1471 44.025 35.9067 44.2696C35.6704 44.5108 35.5522 44.8199 35.5522 45.1969C35.5522 45.5733 35.6704 45.8824 35.9067 46.1235ZM34.6973 45.1969C34.6973 44.6161 34.8972 44.1303 35.2964 43.7383C35.6948 43.3389 36.1996 43.1392 36.8084 43.1392C37.4124 43.1392 37.9151 43.3389 38.3142 43.7383C38.7176 44.1378 38.9196 44.6235 38.9196 45.1969C38.9196 45.7662 38.7176 46.2513 38.3142 46.6548C37.9151 47.0536 37.4124 47.254 36.8084 47.254C36.1996 47.254 35.6948 47.0536 35.2964 46.6548C34.8972 46.2553 34.6973 45.7696 34.6973 45.1969Z" fill="#231F20"/>
<path fill-rule="evenodd" clip-rule="evenodd" d="M47.1147 47.1748H44.2129V43.219H45.0504V46.4452H47.1147V47.1748Z" fill="#231F20"/>
<path fill-rule="evenodd" clip-rule="evenodd" d="M58.4196 46.1235C58.6608 46.3681 58.9607 46.4904 59.3214 46.4904C59.6779 46.4904 59.9764 46.3681 60.2169 46.1235C60.4574 45.879 60.5776 45.5699 60.5776 45.1969C60.5776 44.8239 60.4574 44.5148 60.2169 44.2696C59.9764 44.025 59.6779 43.9021 59.3214 43.9021C58.9607 43.9021 58.6608 44.025 58.4196 44.2696C58.1833 44.5108 58.0652 44.8199 58.0652 45.1969C58.0652 45.5733 58.1833 45.8824 58.4196 46.1235ZM57.2109 45.1969C57.2109 44.6161 57.4102 44.1303 57.8093 43.7383C58.2085 43.3389 58.7125 43.1392 59.3214 43.1392C59.9261 43.1392 60.428 43.3389 60.8272 43.7383C61.2306 44.1378 61.4326 44.6235 61.4326 45.1969C61.4326 45.7662 61.2306 46.2513 60.8272 46.6548C60.428 47.0536 59.9261 47.254 59.3214 47.254C58.7125 47.254 58.2085 47.0536 57.8093 46.6548C57.4102 46.2553 57.2109 45.7696 57.2109 45.1969Z" fill="#231F20"/>
<path fill-rule="evenodd" clip-rule="evenodd" d="M67.329 47.1748H66.4922V43.219H69.4751V43.9473H67.329V44.7502H68.9865V45.4676H67.329V47.1748Z" fill="#231F20"/>
<path fill-rule="evenodd" clip-rule="evenodd" d="M80.9625 47.1748H80.125V43.219H80.9562L82.1376 44.8569L83.3176 43.219H84.1439V47.1748H83.3176V44.4676L82.3809 45.7387H81.916L80.9625 44.4676V47.1748Z" fill="#231F20"/>
<path fill-rule="evenodd" clip-rule="evenodd" d="M91.5003 47.2539C90.9921 47.2539 90.5754 47.101 90.2497 46.796C89.9239 46.4903 89.7617 46.063 89.7617 45.5127V43.2192H90.5929V45.5412C90.5929 45.847 90.6754 46.0807 90.8404 46.2451C91.0047 46.4088 91.2249 46.4903 91.5003 46.4903C91.7792 46.4903 92.0015 46.4088 92.1658 46.2451C92.3301 46.0807 92.4133 45.847 92.4133 45.5412V43.2192H93.2508V45.5127C93.2508 46.063 93.0865 46.4903 92.7565 46.796C92.4308 47.101 92.0113 47.2539 91.5003 47.2539Z" fill="#231F20"/>
<path fill-rule="evenodd" clip-rule="evenodd" d="M100.09 47.254C99.4776 47.254 98.9617 47.1127 98.543 46.8301V45.9822C98.7135 46.1256 98.9386 46.2492 99.2176 46.3559C99.5 46.4571 99.7803 46.5074 100.055 46.5074C100.284 46.5074 100.472 46.468 100.619 46.3864C100.767 46.3056 100.84 46.1928 100.84 46.0502C100.84 45.896 100.771 45.7866 100.631 45.722C100.572 45.6881 100.495 45.6548 100.398 45.6208L100.258 45.5753L99.9327 45.4795L99.6307 45.383C99.5881 45.3715 99.4965 45.3402 99.3574 45.2873C99.2371 45.2417 99.1498 45.2017 99.0952 45.1684C98.8939 45.0325 98.7653 44.9177 98.7114 44.8239C98.6192 44.6426 98.5716 44.4585 98.5716 44.2696C98.5716 43.9191 98.7093 43.6446 98.9848 43.4449C99.2602 43.2411 99.6342 43.1392 100.107 43.1392C100.584 43.1392 101.028 43.2485 101.44 43.4673V44.2587C101.025 44.0101 100.584 43.8858 100.119 43.8858C99.658 43.8858 99.4273 44.0155 99.4273 44.2757C99.4273 44.3885 99.4986 44.4782 99.6419 44.5468C99.7272 44.5923 99.8383 44.6317 99.974 44.665C100.156 44.7146 100.304 44.7553 100.416 44.79C100.753 44.8912 101.048 45.0298 101.299 45.2017C101.571 45.3871 101.707 45.6623 101.707 46.0271C101.707 46.4082 101.554 46.7071 101.247 46.9265C100.941 47.1446 100.556 47.254 100.09 47.254Z" fill="#231F20"/>
<path fill-rule="evenodd" clip-rule="evenodd" d="M107.197 47.1753H108.029V43.2195H107.197V47.1753Z" fill="#231F20"/>
<path fill-rule="evenodd" clip-rule="evenodd" d="M115.438 47.254C114.806 47.254 114.281 47.0617 113.861 46.6765C113.443 46.2859 113.234 45.7927 113.234 45.1969C113.234 44.5943 113.441 44.0998 113.856 43.7159C114.275 43.3321 114.802 43.1392 115.438 43.1392C115.833 43.1392 116.192 43.2214 116.514 43.3885V44.2078C116.2 44.004 115.843 43.9021 115.443 43.9021C115.06 43.9021 114.736 44.025 114.472 44.2696C114.217 44.5108 114.089 44.8199 114.089 45.1969C114.089 45.5733 114.221 45.8837 114.484 46.129C114.744 46.3701 115.075 46.4904 115.479 46.4904C115.924 46.4904 116.297 46.3756 116.595 46.146V46.9652C116.266 47.1575 115.88 47.254 115.438 47.254Z" fill="#231F20"/>
</svg>
